<svg width="17" height="20" viewBox="0 0 17 20" xmlns="http://www.w3.org/2000/svg" xmlns:xlink="http://www.w3.org/1999/xlink"><title>49790A77-9369-4B0F-A9EA-38C987EF41B3</title><g fill="none"><path id="a" d="M0 0h20v20H0z"/></g><g transform="translate(-2)" fill="none" fill-rule="evenodd"><mask id="b" fill="#fff"><use xlink:href="#a"/></mask><path d="M.006 15.47c-.1-.227 1.001-6.173 7.465-10.453 6.463-4.28 12.081-2.72 12.103-2.818.018-.083.033 3.374.037 4.486a.4.4 0 0 1-.333.396l-4.979.851-1.872-1.965s-1.333.3-3.204 1.634c-1.87 1.334-3.072 2.623-3.072 2.623l1.133 2.466-2.274 4.054a.426.426 0 0 1-.492.2C3.444 16.63.078 15.631.006 15.47z" fill="#333" mask="url(#b)" transform="scale(1 -1) rotate(-20 -43.963 0)"/></g></svg>