<svg width="164" height="632" viewBox="0 0 164 632" xmlns="http://www.w3.org/2000/svg"><title>4402D2FC-E443-4C7B-9FE0-7197E10059C6</title><g fill="#FFF" fill-rule="evenodd" fill-opacity=".1"><path d="M104 631.55l1 .5V0l-1-.5zM125 631.55l1 .5V0l-1-.5zM146 631.55l1 .5V0l-1-.5z"/><path d="M162.958 128h.5v-1H83.542v1h.5zM162.958 107h.5v-1H83.542v1h.5zM162.958 149h.5v-1H83.542v1h.5zM162.958 170h.5v-1H83.542v1h.5zM162.958 191h.5v-1H83.542v1h.5zM162.958 23h.5v-1H83.542v1h.5zM162.958 44h.5v-1H83.542v1h.5zM162.958 65h.5v-1H83.542v1h.5zM162.958 86h.5v-1H83.542v1h.5zM162.958 233h.5v-1H83.542v1h.5zM162.958 212h.5v-1H83.542v1h.5zM162.958 254h.5v-1H83.542v1h.5zM162.958 275h.5v-1H83.542v1h.5zM162.958 296h.5v-1H83.542v1h.5zM162.958 338h.5v-1H83.542v1h.5zM162.958 317h.5v-1H83.542v1h.5zM162.958 359h.5v-1H83.542v1h.5zM162.958 380h.5v-1H83.542v1h.5zM162.958 401h.5v-1H83.542v1h.5zM162.958 443h.5v-1H83.542v1h.5zM162.958 422h.5v-1H83.542v1h.5zM162.958 464h.5v-1H83.542v1h.5zM162.958 485h.5v-1H83.542v1h.5zM162.958 506h.5v-1H83.542v1h.5zM162.958 548h.5v-1H83.542v1h.5zM162.958 527h.5v-1H83.542v1h.5zM162.958 569h.5v-1H83.542v1h.5zM162.958 590h.5v-1H83.542v1h.5zM162.958 611h.5v-1H83.542v1h.5zM162.958 632h.5v-1H83.542v1h.5zM20 631.55l1 .5V0l-1-.5zM41 631.55l1 .5V0l-1-.5zM62 631.55l1 .5V0l-1-.5z"/><path d="M83 631.55l1 .5V0l-1-.5z"/><path d="M82.956 128h.5v-1H-.456v1h.5zM82.956 107h.5v-1H-.456v1h.5zM82.956 149h.5v-1H-.456v1h.5zM82.956 170h.5v-1H-.456v1h.5zM82.956 191h.5v-1H-.456v1h.5zM82.956 23h.5v-1H-.456v1h.5zM82.956 44h.5v-1H-.456v1h.5zM82.956 65h.5v-1H-.456v1h.5zM82.956 86h.5v-1H-.456v1h.5zM82.956 233h.5v-1H-.456v1h.5zM82.956 212h.5v-1H-.456v1h.5zM82.956 254h.5v-1H-.456v1h.5zM82.956 275h.5v-1H-.456v1h.5zM82.956 296h.5v-1H-.456v1h.5zM82.956 338h.5v-1H-.456v1h.5zM82.956 317h.5v-1H-.456v1h.5zM82.956 359h.5v-1H-.456v1h.5zM82.956 380h.5v-1H-.456v1h.5zM82.956 401h.5v-1H-.456v1h.5zM82.956 443h.5v-1H-.456v1h.5zM82.956 422h.5v-1H-.456v1h.5zM82.956 464h.5v-1H-.456v1h.5zM82.956 485h.5v-1H-.456v1h.5zM82.956 506h.5v-1H-.456v1h.5zM82.956 548h.5v-1H-.456v1h.5zM82.956 527h.5v-1H-.456v1h.5zM82.956 569h.5v-1H-.456v1h.5zM82.956 590h.5v-1H-.456v1h.5zM82.956 611h.5v-1H-.456v1h.5zM82.956 632h.5v-1H-.456v1h.5z"/></g></svg>