<svg width="945" height="630" viewBox="0 0 945 630" xmlns="http://www.w3.org/2000/svg"><title>D6B1FAFC-D3C4-480E-B5A4-6C1F05984D4F</title><g fill="#FFF" fill-rule="evenodd"><path d="M230 629.95h1V0h-1v629.95zm21 0h1V0h-1v629.95zm21 0h1V0h-1v629.95zm21 0h1V0h-1v629.95zm-168 0h1V0h-1v629.95zm21 0h1V0h-1v629.95zm21 0h1V0h-1v629.95zm21 0h1V0h-1v629.95zm-168 0h1V0h-1v629.95zm21 0h1V0h-1v629.95zm21 0h1V0h-1v629.95zm21 0h1V0h-1v629.95zm252 0h1V0h-1v629.95zm21 0h1V0h-1v629.95zm21 0h1V0h-1v629.95zm21 0h1V0h-1v629.95zm42 0h1V0h-1v629.95zm126 .05h1V0h-1v630zm21 0l1-.05V0h-1v630zm21-.05h1V0h-1v629.95zm42 0h1V0h-1v629.95zm-189 0h1V0h-1v629.95zm21 0h1V0h-1v629.95zm21 .05h1V0h-1v630zm42-.05h1V0h-1v629.95zm126 0h1V0h-1v629.95zm21 .05h1V0h-1v630zm21-.05h1V0h-1v629.95zm42 0h1V0h-1v629.95zm21 0h1V0h-1v629.95zm21 0h1V0h-1v629.95zm21 .05h1V0h-1v630zm42 0l1-.05V0h-1v630zm21 0l1-.05V0h-1v630zm21 0h1V0h-1v630zm21 0l1-.05V0h-1v630z" fill-opacity=".1"/><path d="M945 126v-1H0v1h945zm0 21v-1H0v1h945zm0 21v-1H0v1h945zm0 21v-1H0v1h945zm0-168v-1H0v1h945zm0 21v-1H0v1h945zm0 21v-1H0v1h945zm-.5 21l.5-1H0v1h944.5zm.5 147v-1H0v1h945zm0 21v-1H0v1h945zm0 21v-1H0v1h945zm0 21v-1H0v1h945zm0 42v-1H0v1h945zm0 21v-1H0v1h945zm0 21v-1H0v1h945zm0 21v-1H0v1h945zm0 42v-1H0v1h945zm0 21v-1H0v1h945zm0 21v-1H0v1h945zm0 21v-1H0v1h945zm0 42v-1H0v1h945zm0 21v-1H0v1h945zm0 21v-1H0v1h945zm0 21v-1H0v1h945z" fill-opacity=".1"/><path d="M104 630h1V0h-1v630zm105 0h1V0h-1v630zm105 0h1V0h-1v630zm105 0h1V0h-1v630zm210 0h1V0h-1v630zm-105 0h1V0h-1v630zm210 0h1V0h-1v630zm105 0h1V0h-1v630zm105 0h1V0h-1v630z" fill-opacity=".3"/><path d="M945 105v-1H0v1h945zm0 105v-1H0v1h945zm0 105v-1H0v1h945zm0 105v-1H0v1h945zm0 105v-1H0v1h945zm0 105v-1H0v1h945z" fill-opacity=".3"/></g></svg>