<svg width="610" height="500" viewBox="0 0 610 500" xmlns="http://www.w3.org/2000/svg"><title>891AB04F-C165-4D96-B69C-90B832780E89</title><g fill="#FFF" fill-rule="evenodd"><path d="M211 100v127H0V100h211zM2 102v123h207V102H2zm208-6v-2h-42v2h42zm-33.55-3.558a16.278 16.278 0 0 1 1.888-3.886C180.67 85.07 184.132 83 189.05 83c4.916 0 8.358 2.068 10.659 5.551a16.111 16.111 0 0 1 1.855 3.884c.15.463.425 1.493.436 1.565h2a15.43 15.43 0 0 0-.535-2.185 18.088 18.088 0 0 0-2.087-4.366C198.725 83.432 194.676 81 189.05 81c-5.625 0-9.69 2.43-12.374 6.444a18.255 18.255 0 0 0-2.123 4.364A15.56 15.56 0 0 0 174 94h2a29.4 29.4 0 0 1 .45-1.558zM179 58v2h20v-2h-20zm9 23h2V60h-2v21z"/><path d="M568 310h40v1h-40v20h-2v-20H401v-1h165v-40h2v40zm-9.5 33l-8.5-12h34l-17 24-7.792-11H536v-1h22.5zm9.815 114.5L580 436h-25l11.685 21.5L555 479h25l-11.685-21.5zM315.5 413.97L294 402v25l21.5-11.4L337 427v-25l-21.5 11.97zM43.315 268.5L55 247H30l11.685 21.5L30 290h25l-11.685-21.5zM84.5 352.97L63 341v25l21.5-11.4L106 366v-25l-21.5 11.97zm0 61L63 402v25l21.5-11.4L106 427v-25l-21.5 11.97zM568.315 226.5L580 205h-25l11.685 21.5L555 248h25l-11.685-21.5zm-.317-103.5l-1 1h.085v39h-1v-38.086l-25.792 25.793 6.864 6.864-1.414 1.414-15.556-15.556 1.414-1.414 7.278 7.278L565.169 123H557v-2h20v2h-9.002zm.317-64.5L580 37h-25l11.685 21.5L555 80h25l-11.685-21.5zm-525 0L55 37H30l11.685 21.5L30 80h25L43.315 58.5zM316.05 16L294 0v34l23.153-16H568v-2H316.05zM296 4l18.353 13.317L296 30V4zm-2 14v-2H42v2h252zM42 37h2V18h-2v19zm524 0h2V18h-2v19zM42.5 56L52 39H33l9.5 17zm0 5L52 78H33l9.5-17zm525-5l9.5-17h-19l9.5 17zm0 5l9.5 17h-19l9.5-17zM557 163v2h20v-2h-20zm9-42h2V80h-2v41zm1.5 103l9.5-17h-19l9.5 17zm0 5l9.5 17h-19l9.5-17zm-1.5-24h2v-40h-2v40zm0 55h2v-12h-2v12zM65 405.55l16.7 9.22-16.7 8.78v-18zm39 0l-16.7 9.22 16.7 8.78v-18zm-39-61l16.7 9.22-16.7 8.78v-18zm39 0l-16.7 9.22 16.7 8.78v-18zM63 354v-2H44v2h19zm0 62v-2H44v2h19zm-21 0h2V290h-2v126zm.5-150l9.5-17H33l9.5 17zm0 5l9.5 17H33l9.5-17zm-.5-24h2v-41h-2v41zm18-41H26l17-24 17 24zm-30.147-2h26.279l-13.14-18.552L29.851 204zM168 415.5c0-11.874 9.626-21.5 21.5-21.5s21.5 9.626 21.5 21.5-9.626 21.5-21.5 21.5-21.5-9.626-21.5-21.5zm41 0c0-10.77-8.73-19.5-19.5-19.5s-19.5 8.73-19.5 19.5 8.73 19.5 19.5 19.5 19.5-8.73 19.5-19.5zM197 398l-26 17 26 18v-35zm-29 18v-2h-62v2h62zm126 0v-2h-83v2h83zm-126-62v-2h-62v2h62zm0-.5c0-11.874 9.626-21.5 21.5-21.5s21.5 9.626 21.5 21.5-9.626 21.5-21.5 21.5-21.5-9.626-21.5-21.5zm41 0c0-10.77-8.73-19.5-19.5-19.5s-19.5 8.73-19.5 19.5 8.73 19.5 19.5 19.5 19.5-8.73 19.5-19.5zM183.744 364v-7.684l2.379-2.622L194.37 364h3.506l-9.849-12.258L197.07 342h-3.46l-9.712 10.733h-.153V342H181v22h2.744zM335 405.55l-16.7 9.22 16.7 8.78v-18zM566 416v-2H337v2h229zm0 20h2v-41h-2v41zm1.5 19l9.5-17h-19l9.5 17zm0 5l9.5 17h-19l9.5-17zm-1.5 40h2v-21h-2v21zm1-148.5l13-18.5h-26l13 18.5zM452 321v-1h-21v1h21zm21 42v-1h-21v1h21zm-42 11v-1h-21v1h21zm105-11v-1h-21v1h21zm72-10v-1h-20v1h20zm-156 0v-1h-21v1h21zm53-9v-1h-22v1h22zm94-23v-1h-22v1h22zm-84 0v-1h-21v1h21zm-31 11v-1h-22v1h22zm30 42v-1h-21v1h21zm54 0v-1h-22v1h22z"/><path d="M610 268v127H399V268h211zm-23 0h2v-8h-43v8h2v-6h39v6zm-186 2v123h207V270H401zM60 143H26l16.007-22.599 2.001-.001L60 143zm-30.147-2h26.279l-13.14-18.552L29.851 141zM42 120.4h2V80h-2v40.4z"/></g></svg>