<svg width="41" height="50" viewBox="0 0 41 50" xmlns="http://www.w3.org/2000/svg"><title>62B0F458-14AA-4B1F-9FFB-F0AF9D24C089</title><path d="M35.155 18.784c7.154 7.154 7.154 18.74 0 25.85-7.154 7.154-18.74 7.154-25.85 0A18.031 18.031 0 0 1 3.95 31.294 20.411 20.411 0 0 0 7.768 34.1l1.405.834.439.22c.57 2.15 1.711 4.125 3.379 5.793 5.091 5.135 13.386 5.135 18.477 0 5.091-5.091 5.091-13.386 0-18.477-2.897-2.897-6.803-4.126-10.577-3.774.132-.922.22-1.888.22-2.853 0-.79-.045-1.58-.176-2.37 5.135-.351 10.314 1.404 14.22 5.31zM9.173 0c5.442 3.16 9.129 9.085 9.129 15.844 0 6.802-3.687 12.684-9.13 15.887C3.688 28.528 0 22.646 0 15.844 0 9.084 3.687 3.16 9.173 0zm0 3.95a14.947 14.947 0 0 1 5.88 11.894c0 4.74-2.194 9.129-5.88 11.937V3.95z" fill="#333" fill-rule="evenodd"/></svg>