<svg xmlns="http://www.w3.org/2000/svg" xmlns:xlink="http://www.w3.org/1999/xlink"><symbol id="i-arrow-down" viewBox="0 0 17 10"><title>666FE749-DBB2-4058-BB9B-E6D470C6994F</title><path d="M8.414 9.828l8.414-8.414L15.414 0 8.408 6.994 1.414 0 0 1.414z" fill="#FFF" fill-rule="evenodd"/></symbol><symbol id="i-check" viewBox="0 0 18 18"><title>C93A5B6E-C0AD-4BDE-A266-BEFABB6B297D</title><path d="M7.555 17.695l9.701-14.876a1.5 1.5 0 0 0-2.512-1.638L6.946 13.14l-3.95-3.511a1.5 1.5 0 0 0-1.993 2.242l6.552 5.824z" fill="#333" fill-rule="evenodd"/></symbol><symbol id="i-close" viewBox="0 0 50 50"><title>7DC8AA69-B738-4638-89DC-734DDE3AE1B5</title><path d="M25.071 23.657l7.071-7.071L33.556 18l-7.07 7.071 7.07 7.071-1.414 1.414-7.07-7.07L18 33.555l-1.414-1.414 7.07-7.07L16.587 18 18 16.586l7.071 7.07zM25 50c13.807 0 25-11.193 25-25S38.807 0 25 0 0 11.193 0 25s11.193 25 25 25z" fill="#00DC89" fill-rule="evenodd"/></symbol><symbol id="i-factory" viewBox="0 0 39 28"><title>19836712-CAD8-4F1D-9706-DD184360FB98</title><path d="M17 9.809V10h-1V5.309l-13 6.5V27H2V11h.382L16 4.191V4h1v4.691l9-4.5V4h1v10h-1V5.309l-9 4.5zM33 14h4v1H26v-1h4V0h1v14h1V0h1v14zM0 27h39v1H0v-1zm8-10h1v6H8v-6zm4 0h1v6h-1v-6zm4 0h1v6h-1v-6zm15 0h1v6h-1v-6zm0-17h1v1h-1V0zm5 15h1v12h-1V15z" fill="#333" fill-rule="evenodd"/></symbol><symbol id="i-mail" viewBox="0 0 16 11"><title>58DFD62D-2DA2-404F-AB47-5D7708A830D8</title><g fill="none"><path id="a" d="M0 0h20v20H0z"/></g><g transform="translate(-2 -5)" fill="none" fill-rule="evenodd"><mask id="b" fill="#fff"><use xlink:href="#a"/></mask><path d="M18 6.475V5H2v1.475L10 12l8-5.525zm0 2.393V16H2V8.868l8 5.332 8-5.332z" fill="#FFF" mask="url(#b)"/></g></symbol><symbol id="i-phone" viewBox="0 0 17 20"><title>49790A77-9369-4B0F-A9EA-38C987EF41B3</title><g fill="none"><path id="a" d="M0 0h20v20H0z"/></g><g transform="translate(-2)" fill="none" fill-rule="evenodd"><mask id="b" fill="#fff"><use xlink:href="#a"/></mask><path d="M.006 15.47c-.1-.227 1.001-6.173 7.465-10.453 6.463-4.28 12.081-2.72 12.103-2.818.018-.083.033 3.374.037 4.486a.4.4 0 0 1-.333.396l-4.979.851-1.872-1.965s-1.333.3-3.204 1.634c-1.87 1.334-3.072 2.623-3.072 2.623l1.133 2.466-2.274 4.054a.426.426 0 0 1-.492.2C3.444 16.63.078 15.631.006 15.47z" fill="#333" mask="url(#b)" transform="scale(1 -1) rotate(-20 -43.963 0)"/></g></symbol><symbol id="i-radiator" viewBox="0 0 38 24"><title>BECFA5E9-5232-45FA-B1E6-E9BC0BA1BF70</title><path d="M0 0h7v24H0V0zm1 1h5v22H1V1zm8-1h7v24H9V0zm1 1h5v22h-5V1zm8-1h7v24h-7V0zm1 1h5v22h-5V1zm8-1h7v24h-7V0zm1 1h5v22h-5V1zM7 3h2v1H7V3zm9 0h2v1h-2V3zm9 0h2v1h-2V3zm9 0h2v1h-2V3zM7 20h2v1H7v-1zm9 0h2v1h-2v-1zm9 0h2v1h-2v-1zm9 0h4v1h-4v-1zm2-19h2v5h-2V1z" fill="#333" fill-rule="evenodd"/></symbol><symbol id="i-tube" viewBox="0 0 39 24"><title>6412C965-0045-4483-93B7-C8513DEBBB8C</title><path d="M21 2.982l.96 13.322 1.048 2.453L24 9h1l-1.173 11.673L24.82 23h10.785l-2.595-4.343L32 9h1.011l.987 9.458L36.768 23H39v1H0v-1h2.18l2.86-6.696L6 3h.999l-1 13.531L3.263 23h20.474L21 16.531 20.002 3H6V2h15v.982zM6 0h15v1H6V0zm18 6h9v1h-9V6zm0 2h9v1h-9V8zM6 1h1v1H6V1zm14 0h1v1h-1V1zm4 6h1v1h-1V7zm8 0h1v1h-1V7z" fill="#333" fill-rule="evenodd"/></symbol><symbol id="logo" viewBox="0 0 157 51"><title>BC546BA6-ABBB-46D4-9C8E-E3FF04B1AD57</title><path d="M49.135 19.001c-.268 0-.447.134-.447.403v15.514c0 .268.179.402.447.402h7.511c3.443 0 6.214-2.146 6.214-5.5 0-3.397-2.771-5.498-6.214-5.498H52.13V22.22h8.853c.268 0 .447-.134.447-.402v-2.414c0-.269-.179-.403-.447-.403H49.135zm2.995 8.54h4.516c1.788 0 2.772.804 2.772 2.28 0 1.386-.984 2.28-2.772 2.28H52.13v-4.56zm21.058-5.5c2.951 0 5.008 2.102 5.008 5.142 0 2.95-2.057 5.097-5.008 5.097-2.995 0-5.052-2.146-5.052-5.097 0-3.04 2.057-5.142 5.052-5.142zm-8.54 5.142c0 4.828 3.846 8.36 8.54 8.36 4.65 0 8.495-3.532 8.495-8.36 0-4.784-3.845-8.405-8.495-8.405-4.694 0-8.54 3.621-8.54 8.405zM85.082 19c-.269 0-.447.134-.447.403v15.514c0 .268.178.402.447.402h2.593c.268 0 .402-.134.402-.402v-6.439h7.377v6.439c0 .268.134.402.403.402h2.637c.269 0 .403-.134.403-.402V19.404c0-.269-.134-.403-.403-.403h-2.637c-.269 0-.403.134-.403.403v5.812h-7.377v-5.812c0-.269-.134-.403-.402-.403H85.08zm30.804 15.917c.09.268.313.402.626.402h2.817c.268 0 .402-.224.313-.492l-6.707-15.603c-.044-.134-.179-.224-.357-.224h-3.398c-.224 0-.313.09-.403.224l-6.974 15.693c-.09.268 0 .402.268.402h2.95c.224 0 .403-.134.493-.358l1.162-2.861h8.048l1.162 2.817zM110.61 22.22h.313l2.638 6.707h-5.633l2.682-6.707zm12.295-3.219c-.268 0-.402.134-.402.403v15.514c0 .268.134.402.402.402h2.638c.268 0 .403-.134.403-.402v-5.366l1.743-1.34 5.455 6.795c.178.223.402.313.715.313h3.577c.268 0 .402-.224.179-.447l-7.556-8.718 7.108-6.707c.224-.223.135-.447-.134-.447h-3.621c-.358 0-.626.09-.805.224l-6.661 6.661v-6.482c0-.269-.135-.403-.403-.403h-2.638zm30.313 15.917c.09.268.313.402.626.402h2.816c.269 0 .403-.224.313-.492l-6.661-15.603c-.09-.134-.179-.224-.403-.224h-3.397c-.18 0-.313.09-.358.224l-7.02 15.693c-.089.268 0 .402.269.402h2.95a.54.54 0 0 0 .537-.358l1.118-2.861h8.092l1.118 2.817zM147.94 22.22h.358l2.593 6.707h-5.633l2.682-6.707zM48.822 41.087c-.09 0-.134.045-.134.134v4.427c0 .089.045.134.134.134h2.146c.984 0 1.788-.626 1.788-1.565 0-.984-.804-1.61-1.788-1.61h-1.297v-.58h2.549c.09 0 .134-.045.134-.135v-.67c0-.09-.045-.135-.134-.135h-3.398zm.85 2.46h1.296c.536 0 .805.223.805.67 0 .402-.269.626-.805.626h-1.297v-1.297zm4.247-2.46c-.09 0-.134.045-.134.134v4.427c0 .089.044.134.134.134h.805c.044 0 .089-.045.134-.09l1.028-1.43 1.207-1.744h.045l-.045 1.386v1.744c0 .089.045.134.134.134h.716c.089 0 .134-.045.134-.134V41.22c0-.089-.045-.134-.134-.134h-.716c-.09 0-.134.045-.179.09l-1.296 1.699-.984 1.43h-.044l.044-1.34V41.22c0-.089-.044-.134-.134-.134h-.715zm7.734 4.784c1.342 0 2.415-1.028 2.415-2.414 0-1.386-1.073-2.46-2.415-2.46a2.424 2.424 0 0 0-2.459 2.46c0 1.386 1.073 2.414 2.46 2.414zm0-3.934c.85 0 1.431.626 1.431 1.52 0 .85-.581 1.475-1.43 1.475-.895 0-1.476-.626-1.476-1.475 0-.894.581-1.52 1.475-1.52zm3.04-.85c-.044 0-.089.045-.089.134v.671c0 .09.045.134.09.134h1.52v3.622c0 .089.044.134.09.134h.76c.089 0 .133-.045.133-.134v-3.622h1.476c.09 0 .134-.044.134-.134v-.67c0-.09-.045-.135-.134-.135h-3.98zm5.142 0c-.045 0-.09.045-.09.134v4.427c0 .089.045.134.09.134h3.532c.09 0 .134-.045.134-.134v-.671c0-.09-.045-.134-.134-.134H70.73v-1.028h2.28c.045 0 .09-.045.09-.09v-.715c0-.09-.045-.134-.09-.134h-2.28v-.85h2.593c.045 0 .09-.044.09-.134v-.67c0-.09-.045-.135-.09-.135h-3.487zm4.784 0c-.09 0-.134.09-.09.134l1.655 2.146-1.789 2.28c-.044.045 0 .135.09.135h.939c.09 0 .178-.045.223-.09l1.118-1.699h.09l1.206 1.7c.045.044.09.089.18.089h.983c.09 0 .09-.09.045-.18l-1.744-2.28 1.654-2.1c0-.09 0-.135-.09-.135h-.983c-.09 0-.134.045-.134.09L76.9 42.652h-.09l-1.072-1.475c-.045-.045-.09-.09-.135-.09h-.983zm5.857 0c-.09 0-.09.045-.09.134v4.427c0 .089 0 .134.09.134h.76c.09 0 .134-.045.134-.134v-1.833h2.101v1.833c0 .089.045.134.134.134h.76c.045 0 .09-.045.09-.134V41.22c0-.089-.045-.134-.09-.134h-.76c-.09 0-.134.045-.134.134v1.655H81.37V41.22c0-.089-.045-.134-.134-.134h-.76zm5.097 2.37c0 1.386 1.117 2.414 2.459 2.414 1.34 0 2.459-1.028 2.459-2.414a2.452 2.452 0 0 0-2.46-2.46 2.452 2.452 0 0 0-2.458 2.46zm2.459-1.52c.849 0 1.43.626 1.43 1.52 0 .85-.581 1.475-1.43 1.475-.85 0-1.476-.626-1.476-1.475 0-.894.626-1.52 1.476-1.52zm7.824 3.845c.089 0 .134-.045.134-.134V41.22c0-.089-.045-.134-.134-.134H92.77a.096.096 0 0 0-.09.09l-.536 3.398a.306.306 0 0 1-.313.313c-.18 0-.268-.045-.403-.135-.044-.044-.089-.044-.134 0l-.357.492c-.045.09-.045.134 0 .18.223.267.536.401.983.401.716 0 1.118-.447 1.207-1.117l.358-2.683h1.52v3.622c0 .089.045.134.09.134h.76zm1.207-2.325c0 1.386 1.117 2.414 2.459 2.414 1.34 0 2.459-1.028 2.459-2.414a2.452 2.452 0 0 0-2.46-2.46 2.452 2.452 0 0 0-2.458 2.46zm2.459-1.52c.85 0 1.475.626 1.475 1.52 0 .85-.626 1.475-1.475 1.475-.85 0-1.431-.626-1.431-1.475 0-.894.581-1.52 1.43-1.52zm4.426 3.845c.09 0 .134-.045.134-.134v-3.622h2.459c.09 0 .134-.044.134-.134v-.67c0-.09-.045-.135-.134-.135h-3.353c-.045 0-.09.045-.09.134v4.427c0 .089.045.134.09.134h.76zm3.89-4.695c-.045 0-.09.045-.09.134v4.427c0 .089.045.134.09.134h.804c.045 0 .09-.045.134-.09l1.029-1.43 1.207-1.744h.09l-.045 1.386v1.744c0 .089.044.134.089.134h.76c.09 0 .134-.045.134-.134V41.22c0-.089-.045-.134-.134-.134h-.76a.339.339 0 0 0-.179.09l-1.252 1.699-.983 1.43h-.045l.045-1.34V41.22c0-.089-.045-.134-.134-.134h-.76zm5.41 4.56c-.045.045-.045.135.044.135h.85c.089 0 .134-.045.178-.09l.716-1.162h1.251v1.118c0 .089.045.134.135.134h.76c.089 0 .134-.045.134-.134V41.22c0-.089-.045-.134-.134-.134h-2.102c-1.028 0-1.833.76-1.833 1.7 0 .715.358 1.162.85 1.475l-.85 1.386zm3.04-3.62v1.564h-1.252c-.492 0-.805-.358-.805-.805 0-.447.268-.76.805-.76h1.251zm4.202 1.43c0 1.386 1.118 2.414 2.46 2.414 1.34 0 2.458-1.028 2.458-2.414a2.452 2.452 0 0 0-2.459-2.46 2.452 2.452 0 0 0-2.459 2.46zm2.46-1.52c.849 0 1.43.626 1.43 1.52 0 .85-.581 1.475-1.43 1.475-.85 0-1.432-.626-1.432-1.475 0-.894.582-1.52 1.431-1.52zm3.486-.85c-.044 0-.09.045-.09.134v1.476c0 1.207.761 1.833 1.968 1.833.402 0 .76-.09 1.073-.179v1.297c0 .089.045.134.134.134h.76c.045 0 .09-.045.09-.134V41.22c0-.089-.045-.134-.09-.134h-.76c-.09 0-.134.045-.134.134v2.191c-.313.134-.626.179-1.073.179-.626 0-.983-.313-.983-.894V41.22c0-.089-.045-.134-.135-.134h-.76zm5.365 0c-.089 0-.134.045-.134.134v4.427c0 .089.045.134.134.134h.76c.045 0 .09-.045.135-.09l1.028-1.43 1.207-1.744h.09l-.045 1.386v1.744c0 .089.044.134.134.134h.715c.09 0 .134-.045.134-.134V41.22c0-.089-.044-.134-.134-.134h-.715c-.09 0-.179.045-.179.09l-1.297 1.699-.983 1.43h-.045l.045-1.34V41.22c0-.089-.045-.134-.134-.134h-.716zm7.646-.09c-1.342 0-2.415 1.03-2.415 2.415 0 1.386 1.073 2.46 2.415 2.46.85 0 1.61-.403 2.056-1.119.045-.044 0-.089-.045-.134l-.536-.447c-.045-.044-.09-.044-.134 0-.358.537-.76.716-1.341.716-.85 0-1.386-.626-1.386-1.476s.536-1.43 1.386-1.43c.58 0 .983.178 1.34.67.046.045.09.09.135.045l.536-.447c.045 0 .09-.045.045-.134-.402-.716-1.252-1.118-2.056-1.118zm2.906.09c-.09 0-.09.045-.09.134v.671c0 .09 0 .134.09.134h1.475v3.622c0 .089.045.134.134.134h.76c.09 0 .134-.045.134-.134v-3.622h1.476c.09 0 .134-.044.134-.134v-.67c0-.09-.045-.135-.134-.135h-3.98zm5.141 0c-.09 0-.134.045-.134.134v4.427c0 .089.045.134.134.134h.76c.09 0 .134-.045.134-.134v-1.52l.492-.403 1.565 1.967c.045.045.134.09.223.09h1.029c.044 0 .09-.09.044-.134l-2.19-2.504 2.056-1.923c.045-.089.045-.134-.044-.134h-1.029c-.09 0-.178.045-.223.045l-1.923 1.923V41.22c0-.089-.044-.134-.134-.134h-.76zm5.32 0c-.089 0-.134.045-.134.134v4.427c0 .089.045.134.134.134h.805c.045 0 .09-.045.134-.09l1.029-1.43 1.207-1.744h.045l-.045 1.386v1.744c0 .089.045.134.134.134h.76c.045 0 .09-.045.09-.134V41.22c0-.089-.045-.134-.09-.134h-.76c-.09 0-.134.045-.179.09l-1.252 1.699-.983 1.43h-.09l.045-1.34V41.22c0-.089-.045-.134-.09-.134h-.76zM35.812 19.135c7.287 7.288 7.287 19.091 0 26.334-7.288 7.287-19.09 7.287-26.334 0a18.368 18.368 0 0 1-5.454-13.592 20.793 20.793 0 0 0 3.89 2.862l1.43.85.447.223c.581 2.19 1.744 4.202 3.443 5.901 5.186 5.231 13.636 5.231 18.822 0 5.186-5.186 5.186-13.636 0-18.822-2.95-2.95-6.93-4.203-10.775-3.845a20.67 20.67 0 0 0 .224-2.906c0-.805-.045-1.61-.179-2.414 5.231-.358 10.507 1.43 14.486 5.41zM9.344 0c5.544 3.219 9.3 9.255 9.3 16.14 0 6.93-3.756 12.92-9.3 16.184C3.756 29.061 0 23.07 0 16.14 0 9.255 3.756 3.219 9.344 0zm0 4.024a15.226 15.226 0 0 1 5.991 12.116c0 4.828-2.235 9.3-5.99 12.16V4.025z" fill="#333" fill-rule="evenodd"/></symbol></svg>